/* XPM */
static char *result[] = {
/* columns rows colors chars-per-pixel */
"80 80 2 1 ",
"  c #67548C",
". c #8472A8",
/* pixels */
"                                                                                ",
"                                                                                ",
"                                                                                ",
"    ........................................................................    ",
"    ........................................................................    ",
"    ........................................................................    ",
"    ........................................................................    ",
"    ........................................................................    ",
"    ........................................................................    ",
"    ........................................................................    ",
"    ........................................................................    ",
"    ........................................................................    ",
"    ........................................................................    ",
"    ........................................................................    ",
"    ........................................................................    ",
"    ........................................................................    ",
"    ........................................................................    ",
"    ........................................................................    ",
"    ........................................................................    ",
"    ........................................................................    ",
"    ........................................................................    ",
"    ........................................................................    ",
"    ........................................................................    ",
"    ........................................................................    ",
"    ........................................................................    ",
"    ........................................................................    ",
"    ........................................................................    ",
"    ........................................................................    ",
"    ........................................................................    ",
"    ........................................................................    ",
"    ........................................................................    ",
"    ........................................................................    ",
"    ........................................................................    ",
"    ........................................................................    ",
"    ........................................................................    ",
"    ........................................................................    ",
"    ........................................................................    ",
"    ........................................................................    ",
"    ........................................................................    ",
"    ........................................................................    ",
"    ........................................................................    ",
"    ........................................................................    ",
"    ........................................................................    ",
"    ........................................................................    ",
"    ........................................................................    ",
"    ........................................................................    ",
"    ........................................................................    ",
"    ........................................................................    ",
"    ........................................................................    ",
"    ........................................................................    ",
"    ........................................................................    ",
"    ........................................................................    ",
"    ........................................................................    ",
"    ........................................................................    ",
"    ........................................................................    ",
"    ........................................................................    ",
"    ........................................................................    ",
"    ........................................................................    ",
"    ........................................................................    ",
"    ........................................................................    ",
"    ........................................................................    ",
"    ........................................................................    ",
"    ........................................................................    ",
"    ........................................................................    ",
"    ........................................................................    ",
"    ........................................................................    ",
"    ........................................................................    ",
"    ........................................................................    ",
"    ........................................................................    ",
"    ........................................................................    ",
"    ........................................................................    ",
"    ........................................................................    ",
"    ........................................................................    ",
"    ........................................................................    ",
"    ........................................................................    ",
"                                                                                ",
"                                                                                ",
"                                                                                ",
"                                                                                ",
"                                                                                "
};
