/* XPM */
static char *cb79e67b760d48e3e176c0eab752b9a31OzqhHwm4fPdYV6Y[] = {
/* columns rows colors chars-per-pixel */
"80 80 256 2 ",
"   c #47704C",
".  c #13050D",
"X  c #0E020C",
"o  c #170510",
"O  c #1D0615",
"+  c #331522",
"@  c #210915",
"#  c #3A1D29",
"$  c #2F1320",
"%  c #200817",
"&  c #210816",
"*  c #230818",
"=  c #1D0814",
"-  c #270D1B",
";  c #2A0F1D",
":  c None",
">  c #230817",
",  c #2C1120",
"<  c #250C19",
"1  c #210916",
"2  c #43222C",
"3  c #512E32",
"4  c #240B18",
"5  c #341624",
"6  c #1C0515",
"7  c #43232B",
"8  c #302129",
"9  c #371823",
"0  c #896052",
"q  c #7A5447",
"w  c #361923",
"e  c #533131",
"r  c #280C1B",
"t  c #6D3B3A",
"y  c #2E1420",
"u  c #90665B",
"i  c #371E2F",
"p  c #7C453B",
"a  c #412128",
"s  c #2F1420",
"d  c #42212A",
"f  c #2C111B",
"g  c #423142",
"h  c #3B1F2B",
"j  c #5D3835",
"k  c #311424",
"l  c #986D5C",
"z  c #502C33",
"x  c #674340",
"c  c #6D4843",
"v  c #6A3C3B",
"b  c #754C49",
"n  c #4B262F",
"m  c #3B1A22",
"M  c #4D3D4D",
"N  c #483748",
"B  c #FDC795",
"V  c #FDFDF6",
"C  c #FEFDF0",
"Z  c #FDFDF1",
"A  c #FEC896",
"S  c #FEFEF3",
"D  c #ADC6D4",
"F  c #FEFEF1",
"G  c #ADC5D1",
"H  c #FFC996",
"J  c #D3A287",
"K  c #D1A086",
"L  c #FFFFF5",
"P  c #AFC8D5",
"I  c #FDC694",
"U  c #AEC7D2",
"Y  c #FFC896",
"T  c #FBC594",
"R  c #FFCB97",
"E  c #F69BB1",
"W  c #FCFCEF",
"Q  c #F5F8EE",
"!  c #594F5F",
"~  c #FEC795",
"^  c #F59966",
"/  c #9EB1BE",
"(  c #EDB68C",
")  c #D0A188",
"_  c #C1735A",
"`  c #A37865",
"'  c #FED3A9",
"]  c #FFFFF3",
"[  c #B3CAD5",
"{  c #ABC2CF",
"}  c #F5BF91",
"|  c #CC9C78",
" . c #EC9363",
".. c #AA7D6A",
"X. c #544A59",
"o. c #F7C192",
"O. c #FDE9CE",
"+. c #F8C393",
"@. c #D8855E",
"#. c #C8785B",
"$. c #F9FAF0",
"%. c #919DAB",
"&. c #AD6855",
"*. c #BD8E70",
"=. c #FDF8E8",
"-. c #FECEA0",
";. c #9C7163",
":. c #E6EDE8",
">. c #F3BC8E",
",. c #656271",
"<. c #845A53",
"1. c #E3B086",
"2. c #593B43",
"3. c #C9D9DD",
"4. c #E5B38B",
"5. c #C29079",
"6. c #B88C75",
"7. c #755863",
"8. c #E18A5F",
"9. c #7D8391",
"0. c #8C94A0",
"q. c #EEBA8D",
"w. c #D7A67E",
"e. c #FEF0DA",
"r. c #FDF3E0",
"t. c #FDCA99",
"y. c #EDE9DD",
"u. c #BEB6B1",
"i. c #E8E6DC",
"p. c #F0F5EC",
"a. c #654C55",
"s. c #C79880",
"d. c #79524B",
"f. c #D48A66",
"g. c #DFAD87",
"h. c #DCD7CE",
"j. c #D4A27D",
"k. c #B2856C",
"l. c #694146",
"z. c #CE7F5C",
"x. c #774C4D",
"c. c #7D6669",
"v. c #ECAF82",
"b. c #98A9B6",
"n. c #C4BDB6",
"m. c #A8BFCB",
"M. c #795C65",
"N. c #90625B",
"B. c #6D6C7A",
"V. c #BA7D67",
"C. c #906856",
"Z. c #FDE2C2",
"A. c #FDD8B2",
"S. c #C0D3D9",
"D. c #EFBD94",
"F. c #F5F4E9",
"G. c #B5C0C7",
"H. c #AF8170",
"J. c #CC9980",
"K. c #5D4049",
"L. c #DCE6E5",
"P. c #A1A9B2",
"I. c #B9CED5",
"U. c #68555A",
"Y. c #5E5463",
"T. c #6E6774",
"R. c #AC8265",
"E. c #C79775",
"W. c #E58FA4",
"Q. c #6F4B48",
"!. c #BFB0A7",
"~. c #E3E1D8",
"^. c #D0DEE0",
"/. c #805053",
"(. c #F0EEE2",
"). c #D6936F",
"_. c #E78E62",
"`. c #DBAA83",
"'. c #C5957E",
"]. c #CF8D6B",
"[. c #C6D7DB",
"{. c #B9BABA",
"}. c #BC6F58",
"|. c #5F5B6A",
" X c #717281",
".X c #CAAA98",
"XX c #B3A8A6",
"oX c #D99973",
"OX c #E5AA81",
"+X c #9D9495",
"@X c #888E9B",
"#X c #9199A4",
"$X c #97A2AD",
"%X c #514252",
"&X c #7F5753",
"*X c #CD9C83",
"=X c #857678",
"-X c #FEDBB6",
";X c #B98874",
":X c #D7E2E2",
">X c #B66B55",
",X c #925549",
"<X c #B3BCC3",
"1X c #AC7666",
"2X c #D1CEC7",
"3X c #9B5A4D",
"4X c #BB7385",
"5X c #946B6A",
"6X c #E9EFE9",
"7X c #D5C9C0",
"8X c #ADA09F",
"9X c #797683",
"0X c #99695B",
"qX c #915B5C",
"wX c #C97C8F",
"eX c #A88673",
"rX c #B2745D",
"tX c #995F69",
"yX c #FDDEBB",
"uX c #CCA591",
"iX c #D39F82",
"pX c #B26E5D",
"aX c #E0E9E6",
"sX c #E0A078",
"dX c #5F454F",
"fX c #E2A77E",
"gX c #D4C2B3",
"hX c #9D8B8F",
"jX c #948486",
"kX c #6C5F61",
"lX c #A4B9C6",
"zX c #71545F",
"xX c #A76575",
"cX c #A69B98",
"vX c #817C89",
"bX c #C38465",
"nX c #BBC8CE",
"mX c #A3705C",
"MX c #AF6B7C",
"NX c #B9A091",
"BX c #7E7071",
"VX c #8F7E7B",
"CX c #A8624C",
"ZX c #844A41",
"AX c #F9E2C7",
"SX c #E09971",
"DX c #C8C3BC",
"FX c #CCD5D8",
"GX c #7A7C8B",
"HX c #878593",
"JX c #CBB6A9",
"KX c #F6CAA2",
"LX c #B39082",
"PX c #463240",
"IX c #D5A580",
"UX c #F9A06B",
/* pixels */
"                                                                                                                                                                ",
"                                                                                                                                                                ",
"                                                                                                                                                                ",
"                                                      .                                                                   o * f $ @ .                           ",
"                                                  . 4 8 s 1 o                                                         o @ a q k.*.x @                           ",
"                                                  4 q | *.q a @ X                                                   % w q | +.R R 5.w X                         ",
"                                                X a | R R T | q + 6                                             o - j *.+.H A Y Y 4.e >                         ",
"                                                = j q.A B H R o.k.e @                                         = y 0 ( R A H } 1.T o.c *                         ",
"                                                1 q B g.C.k.} H H w.c r X           X o o o o X .           & d R.T Y A T E.d./.`.I <.<                         ",
"                                                r C.R ..MX/.<.4.H H q.0 f O 6 @ - + 5 # d d d 9 w s < % O & e | H B H q.C.l.wXwXk.A l f                         ",
"                                                , ` T 0XW.E xXx.`.H Y o.l m j p 0 *.rXz.@.@.z.V.E.0XZXp e j | H B H 1.d.qXW.E W.;.T ` $                         ",
"                                                y *.q.N.E E E 4Xx.g.H A } 1XSX .oXH f. .^ ^ _.v.T f.^ ^ z.| H B H g.Q.xXE E E W.N.o...+                         ",
"                                              X 5 | 1.tXE E E E 4X<.q.A A +.(  .oXB f. .^ ^ f.o.OX@.^  .v.~ B H 4.d.4XE E E E W.qX>.H.+                         ",
"                                              o # j.`.tXE E E E 4X: C.I B A T f.).A ]._.^  .SXA ). . .).o.B A >.d.l.wXE E E E W.qX>.H.+                         ",
"                                              o # j.w.tXE wXxX/.d.H...>.A B A ( fXH oX_.^ 8.OXT f. .@.( A B H | <.;.<.tXMXMXW.W.N.} ..+                         ",
"                                              o # j.w.tXMX;...Q.g.T T I B B B A B H fX@.^ @.>.>.@.8.fXA B B B o.>.} 4.d.0 1XqXwX0Xo.` +                         ",
"                                              o # j.g.x.` I 4.w.H B B B B B B B B A v.z.^ f.T >.#.oXI B B B B B A A H g.| Y | x.` o.;.,                         ",
"                                              X 5 E.q.d.4.Y A Y B B B B B B B B B B } z.8.].A } ].>.A B B B B B B B B A B B T <.E.} N.-                         ",
"                                                + k.T E.T B B B B B B B B B B B B B A ].#.sXH I o.B B B B B B B B B B B B B A j.q.( d.4                         ",
"                                                ; ;.R T B B B B B B B B B B B B B B H OX}.( A B B B B B B B B B B B B B B B B B B g.x &                         ",
"                                                4 q I B B B B B B B B B B B B B B B B +.OXT B B B B B B B B B B B B B B B B B B T J.e O                         ",
"                                                * c +.B B B B B B B B B B B B B B B B B A B B B B B B B B B B B B B B B B B B B I 6.i .                         ",
"                                                ; ;.H B B B B B A R R R A B B B B B B B B B B B B B B B B H R R H B B B B B B B B iXe >                         ",
"                                              O 7 w.H B B B B A } E...*.( Y B B B B I B I B I B B B B B B w.R.R.`.A B B B B B B A ( b 4                         ",
"                                              * c o.B B B B A q.C.=Xc.2.Q.g.R t.A -.-X-.' -.A.O.' t.-.t.R.2.a.=Xc.*.A B B B B B A o.l $                         ",
"                                              r C.H B B B B H ` M.$.h.M.dXc.O.e.e.e.W r.=.r.=.S =.r.=.7X2.zXjXV 7XQ.1.Y B B B B B +.;X# o                       ",
"                                            o y k.R H A B t.T d.7.8XhX7.zXa.i.] S F F L ] L ] Z Z F L XXK.M.c.XXhXdX*.-.t.B Y R R T J.z 6                       ",
"                                          . 4 k <.k.E.1.} -XO.M.a.7.7.7.zXa.y.F Z F F.!.hXhXn.$.Z Z L XXK.M.7.7.M.K.NXe.-.} 1.E.R.` <.n ; O                     ",
"                                            O d *.w.*.eXeXNXh.cX2.7.7.7.K.VXW Z Z F i.M.4XxXc.F.Z Z ] h.dXa.M.M.a.a.h.gX6.` R.*.| `.J.v 1                       ",
"                                            O d | A A -.AXh.DXi.jX2.2.2.BXi.F Z Z Z Z n.5X5Xh.] Z Z Z F u.a.2.2.a.n.i.n.7XD.} } } q.iXx *                       ",
"                                          & f k <.` ..R.6.!.y.] $.2X!.DXF.] Z Z F F Z L +X!.L Z F F Z Z ] ~.u.u.~.] F h.cXeX` mX0XC.0 n $ =                     ",
"                                          o > 5 0XOX( 1.w.JXy.F Z ] L ] F Z Z F F.y.] i.U.BX(.] i.F.F Z Z ] ] ] ] Z Z ~.n.gX4.( ).rXV.3 1 o                     ",
"                                            . $ t rXV.rXmXNXy.F Z Z Z Z Z Z Z ] ~.BXVXkXcX+Xc.=X=Xy.F Z Z Z Z Z Z Z F i.u.8XVX0 mX&.3Xh O                       ",
"                                        o @ ; y n &.bXs.7X=.F Z Z Z Z Z Z Z Z Z F h.u.h.Z W 2Xn.~.F Z Z Z Z Z Z Z Z Z F ] ] F.JXqXZX: k % .                     ",
"                                        1 < = = 2 &.NXF.] Z Z Z Z Z Z Z Z Z Z Z Z ] ] ] Z Z ] ] ] Z Z Z Z Z Z Z Z Z Z Z Z Z F ] n.1Xt , - @ .                   ",
"                                        X     . + zXI.Q F Z Z Z Z Z Z Z Z Z Z Z Z Z Z Z Z Z Z Z Z Z Z Z Z Z Z Z Z Z Z Z Z Z F 6XI.jX2 > . O .                   ",
"                                                * g / 3.p.F Z Z Z Z Z Z Z Z Z Z Z Z Z Z Z Z Z Z Z Z Z Z Z Z Z Z Z Z Z Z F Z :.I.G ,.-                           ",
"                                                . s |.m.S.:.$.F C Z Z Z Z Z Z Z Z Z Z Z Z Z Z Z Z Z Z Z Z Z Z Z Z F F W p.^.[ U 9.# O                           ",
"                                                  O 5 ,.m.[ [.aXp.W C F F F C Z Z Z Z Z Z Z Z Z Z Z Z C F F F Z $.p.aX3.[ U G 9.h &                             ",
"                                                  . > w ! b.U P I.S.^.L.6Xp.Q $.$.W W Z Z Z Z Z W W $.Q p.:.L.^.S.[ U U U / T.# &                               ",
"                                                      O - g ,.%.m.P P U U [ I.S.S.[.[.3.3.3.3.3.[.S.S.I.[ U G D P P m.$XB.PX9 >                                 ",
"                                                          y : K.X. X#X/ { U P P P U U D D D D D U U P P P U m./ 0.B.X.K.<.;.z &                                 ",
"                                                        * 3 LXXX0.B.Y.X.Y.,. X9.0.%.b./ / / / / b.%.@X9. X|.! %XX.B.0.XXuXJ u 5 o                               ",
"                                                      o 9 u .X{.G U { / %.9.B.|.! X.X.! ! X.! ! X.X.! |.B.9.%./ { U G.{..XK s.2.4                               ",
"                                                      @ : s.) ) .X<XG U U P P U { lX#XvXHX#XvX9X0.m.G U P P P U U u.uX) K J K u # O                             ",
"                                                    X 5 R.o.4..X{.{ G G G G G G U @Xl.3X,X/.,X3Xl.0.P U U D G G G G.JXg.q.( V.&.: 4                             ",
"                                                    % j ( Y -.(.:.:X[.I.[ U G G lXdXCX#.#.#.#.f.bXU.m.U [ I.S.3.:X:.F.yXA oX>X#.,X5 X                           ",
"                                                    , l H A O.F F F W Q p.:.aXL.nXK._ z.@._.8.v.1.U.FX:.6Xp.$.W F F F =.KX_ }.}.&.3 &                           ",
"                                                  O 7 j.H -.=.Z Z Z Z Z F F F ] :.kX#.UX^ 8.).T k.9Xp.] F C Z Z Z Z Z F AX).V.V.*.<.-                           ",
"                            > 4 s s %             * x } ~ A.Z C C Z Z Z Z Z Z F p.$XQ.#.f.fXB w.U.G.$.Z Z Z Z Z Z Z Z F r.D.K J J H.9 o                         ",
"                          @ 7 0 *.6.e =           - 0XR A ' Z.-Xr.F Z Z Z Z Z Z Z ^.9.Q.w.B | U.$X:.F Z Z Z Z Z Z F r.-XA.q.K K *X;Xz 6                         ",
"                        < j E.T R R u 4         . w rXsXv.B I A e.=.r.Z Z Z Z Z C Q S.0.kX0 kXP.L.Z Z Z Z Z Z Z =.=.r.t.~ ( J.V.pX>Xt @                         ",
"                      * 3 E.R H A ( b 1         O 7 @.8.].B B A yX' Z.F Z Z Z Z Z F p.3.lX$XnX:.W Z Z Z Z Z Z F O.' Z.t.~ ( *.>X_ #.ZX-                         ",
"                    o 9 &._.SXv.( V.7 O         6 j  .z.OXB +.B B I Z.F Z Z Z Z Z Z F $.:.aXQ C Z Z Z Z Z Z Z Z O.I B B B iXs.pX}.#.,X$                         ",
"                    1 v  .^  ._.@.ZXf           % p @.].B 4.j.Y B I yXZ Z Z Z Z Z Z Z Z F F C Z Z Z Z Z Z Z Z F Z.I B B T 1Xs.5.&._ 3X5 .                       ",
"                    , CX^ ^ ^ ^ 8.v *           1 p bX>.R j.*.H B I ' =.Z Z Z Z Z Z Z Z Z Z Z Z Z Z Z Z Z Z Z W A.I B B } N.'.J 5.pX3X9 X                       ",
"                  X 9 >X8.8.8.@.#.v 1           1 q >.A +.6.` T B B A O.F W W Z Z Z Z Z Z Z Z Z Z Z Z F W r.F e.t.B B A ( <.'.K J J.mXa o                       ",
"                  O 7 bXsXoXsXv.g.N.r           * u H } `...N.D.A B B -.e.O.Z.W F Z Z Z Z Z Z Z Z Z =.y.AXA.e.' I B B A g./.s.K K J ;Xa X                       ",
"                  O 7 w.R H H H >.H.# O         ; d.+.g.) ..&X( A B B B -.-.A -Xe.Z Z Z Z Z Z Z Z F y.4.B t.-.B B B B A K x.J.K K J k.h =                       ",
"                  o # E.R B B B o.J.t ; X     % 3 N.`.) J H.Q.4.A B B B B B B I KXF.F Z Z Z Z Z Z C gXg.I B B B B B B B 5.x.*XK K J ..l.+ X                     ",
"                    + ` R B B H >.V.&.t + 6   $ l s.*X) J H.l.g.B B B B B B B H IXn.] Z Z Z Z Z F i.eX4.B B B B B B B +.H./.K K K J 5.6.3 &                     ",
"                    < d.T H B v.f.#._ }.p z + 2 6.J ) ) ) 6.2.J B B B B B B B H j.jXF Z Z Z Z Z ] n.;.q.A B B B B B A } ;.<.J K K K K J &Xr                     ",
"                    = 2 | v.).@. .8._ _ &.;Xu : '.J ) ) ) '.2.'.T B B B B B I Y g.c.F.Z Z Z Z Z ] +X;.>.A B B B B B A q.<.0XJ K K K K J ;.$                     ",
"                      f t @._.^  .z._ _ &.5.k.: s.J ) ) ) *Xl.;X+.B B I B ' A.' D.7.y.] F F F Z W =X` } A B B B B B B 4.x...J K K K K J ` w .                   ",
"                      > m &.^  .z._ _ _ &.J.H.: s.J ) ) ) J d.;.D.A ' ' B A.W W y.U.G.:XL.L.:X^.S.Y...o.A -.t.B B B I J l.6.J ) K K K J ..5 .                   ",
"                        * 2 CX#._ _ _ >X1XJ k.: s.J ) !.<Xu.c.&X( I Z.=.O.O.W F (.Y.b.D D D D D { ! LXA.O.r.' I A ' T 5.K.XX{..XiXK K J ` y .                   ",
"                          @ 2 ,X_ _ }.&.'.J 5.: 6.J K u.D P 0.a.gXyXZ.W F F Z F (.Y.b.P D D D D { ! P.p.] =.' -.O.O.+.` Y.G G !.uX.X) J u ,                     ",
"                          . * h t &.pX5.K K *Xl.` !.!.{.G U / X.<XQ W W Z Z Z F (.! b.P D D D D { ! $XQ F $.e.=.Z O.h.T.9XP G G.G.G.uXK Q.<                     ",
"                              = $ 3 <.6.K J J 0 U.{ G G G G { Y.0.6XF Z Z Z Z F y.X.b.P D D D D { ! %.Q F Z F Z Z Z 3.! %.U G G G G {.8X2 6                     ",
"                                . % + 2 b ;.H.0XPX/ U G G G P GXT.:XZ Z Z Z Z Z ~.%X/ P D D D D G Y.@XQ F Z Z Z Z W <XX.lXU G G G G P  X+ .                     ",
"                                    . = 4 ; w a k  XU G G { G b.! nX$.Z Z Z Z ] 7XX.m.D D D D D P B.9Xp.F Z Z Z F Q 0.,.D m.G G G U / g %                       ",
"                                            . X & h #XP G 9./ %.! nXQ Z Z Z Z S 2XX./ P D D D D P ,.vXp.F Z Z Z F Q 0.Y.{ @Xb.U U m.|.;                         ",
"                                                  @ g 0.m.,./ ,.HXL.$.W Z Z W Z :.T.GX[ P P P P lXX.<X$.$.W Z Z $.W FX! $X9.@XP / ,.y O                         ",
"                                                    @ 7 ! %X9.%XP.6X8X(.F ] DX2XQ @X! %.%.%.%.%.9.! FXQ 8Xy.F ] u.2X:.B.,.,.|.,.g s O                           ",
"                                                      > 4 ; $ 2 $XFXT.~.Q $.+X+XL.HXk i i i i i 5 M G.^.c.~.Q $.+XcX^.T.# $ , r & .                             ",
"                                                            . 4 M 9X%X#XP.P.B.T.GXN %   . X . . X , Y.vX%X#XP.P.T.,. X# =                                       ",
"                                                              . % - $ 8 8 8 + , r &               o @ f $ 8 8 8 8 , < >                                         ",
"                                                                                                                                                                ",
"                                                                                                                                                                ",
"                                                                                                                                                                "
};
