/* XPM */
static char *result[] = {
/* columns rows colors chars-per-pixel */
"50 50 44 1 ",
"  c #761F10",
". c #793A2D",
"X c #872513",
"o c #8E2C1B",
"O c #902512",
"+ c #972613",
"@ c #9A2713",
"# c #952916",
"$ c #9B2915",
"% c #9C2A16",
"& c #9D2D19",
"* c #99301D",
"= c #9F311D",
"- c #963725",
"; c #9F3521",
": c #9F3B28",
"> c #9B3E2C",
", c #A23925",
"< c #A43E2B",
"1 c #974635",
"2 c #A5422F",
"3 c #A34431",
"4 c #A74632",
"5 c #A84936",
"6 c #A24A38",
"7 c #AA4E3B",
"8 c #A5503E",
"9 c #AC523F",
"0 c #A55443",
"q c #AD5744",
"w c #A85947",
"e c #AF5A47",
"r c #A95D4B",
"t c #B05E4B",
"y c #B1614F",
"u c #B26553",
"i c #B46957",
"p c #B66E5B",
"a c #B87360",
"s c #BA7865",
"d c #BD7E6C",
"f c #C08775",
"g c #C69786",
"h c None",
/* pixels */
"hhhhhhhhhhhhhhhhhhhhhhhhhhhhhhhhhhhhhhhhhhhhhhhhhh",
"hhhhhhhhhhhhhhhhhhhhhhhhhhhhhhhhhhhhhhhhhhhhhhhhhh",
"hhhhhhhhhhhhhhhhhhhhhhhhhhhhhhhhhhhhhhhhhhhhhhhhhh",
"hhhhhhhhhhhhhhhhhhhhhhhhhhhhhhhhhhhhhhhhhhhhhhhhhh",
"hhhhhhhhhhhhhhhhhhhhhhhhhhhhhhhhhhhhhhhhhhhhhhhhhh",
"hhhhhhhhhhhhhhhhhhhhhhhhhhhhhhhhhhhhhhhhhhhhhhhhhh",
"hhhhhhhhhhhhhhhhhhhhhhhhhhhhhhhhhhhhhhhhhhhhhhhhhh",
"hhhhhhhhhhhhhhhhhhhhhhhhhhhhhhhhhhhhhhhhhhhhhhhhhh",
"$%%%*i&%%%%%a<%%%%@97%%%%@48@%%%O3i#X#%%,7@%%OX*:%",
";===:y&&&%&&a4&&&&&tq&=&=&7t====#6y=o***3q;**o -5<",
"ypsytyq9qpqqsyttaqquy9qpyqtieidteyiqesiyuuwwpw00up",
"$&=&%#&&,p=&&&&=u;&%%&&9;&%%%&q=#OX#%e,%#%%#3&O#%%",
"$%%%#O%%;i&%%&&=y=##%%%9;&&&&=9=%#O%%t<=**;;6*#%&&",
"tuuttauuudipdaiisiissipfapddpisytyu99sdddfddatqtie",
":;;;3f<,;;,,a7===;;yp,,,,;qu====*4q*==**4uoXX##;5=",
"$@@@=a&@@@@@y3@+@@@7t++@+@2e@%@%@<9@%%%+-rO XXX*9&",
"77937dq79eetat90y75ip61e63qp55r95yseeye778:60860au",
"<27,;,,:2s4<,:::5:,;,,,s7;;;;=aq=;,;;t4==%&&q5*;==",
"$,,@@+@@%dd4+@@@#@@@+@@y<++@@@p9@+@@@7,@@@%@q4O#%%",
"7dd570eeygggyeqqppiiw09fp9eqqefdq9q77puqyiyysfapdd",
"q9725duqqq75du2<277pi44555as45575qp444427a52<<4555",
"$@@@+0;O@@@+u4@@@@@57@@@@@5y@@@@@;7@@@+@&<OOO+@@@@",
"65422d9>2454di44422yp55555pp2222:5i487249p0qqqqt73",
"upuewuyeefstte9eft99q99ay99775at57eqtdq59i77uy8077",
"$@+@%@@@&y&@@@@@i;@@@@@7,@+@@+y<+++++q<@%%@@3,OO@@",
"o8t==&##,i<,,,,<f5;,;;=t9<,,,;yq<22:tfq24433uiqe61",
"usaq9r=;eaiisaruatqii55qtqtu79tytia0tiytupteuiuafu",
"$%###a<@%%%@75@%%%@2q@%%@@;7%%%%@=5++@@@;2+@@@O*2@",
"$&%&#d3&&&&&79&====5y;;===<9===&&,u<;;;=27;;;-,35;",
"wriqqdieqiteuieepyyupyyi778e99u744uiusq9eyttpyyiuw",
"o>t&&&&#*9=&&&&&4&&&%#*q&%###&q*%%%%&q&%%##%&%%%OO",
"$:t%%%#%=7&%%%#&6#%%%%*y,=&***y:*---;st,=;=;2;=;*=",
"8ts08yw9yatqeq57y89ue48diria99aiypdpidduyuyyauwuyu",
"-oooor8*;;;=42&&&#&9q%&*oO>w%&%%#,w%&%%%,5###XXOX#",
"$XX  wt++@%@3:@@@@@79@%%=%2t%%%%%<e&=&&&:u**#X XX#",
"iisspfgpasasfsuuyq9idiiaayyiytpiipsiaduupappsyuiyw",
"1rfy43318p555137i2<,<<3t,,=&*:t,,;&*-y;==%o*p9&**o",
" -5O+@+X*q@@OXO*q%@+@@&9%@@@@=0#%@+OX6%@%#O#6*#@X ",
">0w:-:-;>i338r65y559745y259778q:4qe88ue0err0u0qwww",
".1611y5>>:>>p83<<22fs2,,,2ae2<;=;aa:-<:-68-;;-:1..",
"  X@%e*@%%XXroO%%%+pr#%%%@y7+###@ytOO#XXy7+#%%@X  ",
"hhhhhhhhhhhhhhhhhhhhhhhhhhhhhhhhhhhhhhhhhhhhhhhhhh",
"hhhhhhhhhhhhhhhhhhhhhhhhhhhhhhhhhhhhhhhhhhhhhhhhhh",
"hhhhhhhhhhhhhhhhhhhhhhhhhhhhhhhhhhhhhhhhhhhhhhhhhh",
"hhhhhhhhhhhhhhhhhhhhhhhhhhhhhhhhhhhhhhhhhhhhhhhhhh",
"hhhhhhhhhhhhhhhhhhhhhhhhhhhhhhhhhhhhhhhhhhhhhhhhhh",
"hhhhhhhhhhhhhhhhhhhhhhhhhhhhhhhhhhhhhhhhhhhhhhhhhh",
"hhhhhhhhhhhhhhhhhhhhhhhhhhhhhhhhhhhhhhhhhhhhhhhhhh",
"hhhhhhhhhhhhhhhhhhhhhhhhhhhhhhhhhhhhhhhhhhhhhhhhhh",
"hhhhhhhhhhhhhhhhhhhhhhhhhhhhhhhhhhhhhhhhhhhhhhhhhh"
};
